# xmcd
#
# Track frame offsets: 
#        150
#        12700
#        24783
#        37530
#        52283
#        64236
#        74931
#        87995
#        96567
#        112308
#        123478
#        135717
#
# Disc length: 1996 seconds
#
# Revision: 0
# Processed by: cddbd v1.5.2PL0 Copyright (c) Steve Scherf et al.
# Submitted via: ExactAudioCopy v0.99pb4
#
DISCID=b707ca0c
DTITLE=Various Artist - Kooky Kountry
DYEAR=1982
DGENRE=Comedy
TTITLE0=Claude King - Wolverton Mountain
TTITLE1=Johnny Preston - Running Bear
TTITLE2=Billy Edd Wheeler - Ode to the Little Brown Shack Out Back
TTITLE3=Dick Feller - The Credit Card Song
TTITLE4=Charlie Walker - Don't Squeeze My Sharmon
TTITLE5=Little Jimmy Dickens - May the Bird of Paradise Fly Up Your No
TTITLE5=se
TTITLE6=Ray Stevens - Sergeant Preston of the Yukon
TTITLE7=Tommy Collins - If You Can't Bite, Don't Growl
TTITLE8=Guy Drake - Welfare Cadillac
TTITLE9=Hank Thompson - Smokey the Bar
TTITLE10=Jack and Misty - Tennessee Bird Walk
TTITLE11=Larry Verne - Mr. Custer
EXTD=
EXTT0=
EXTT1=
EXTT2=
EXTT3=
EXTT4=
EXTT5=
EXTT6=
EXTT7=
EXTT8=
EXTT9=
EXTT10=
EXTT11=
PLAYORDER=
